<?xml version="1.0" encoding="UTF-8"?>
<!DOCTYPE svg PUBLIC "-//W3C//DTD SVG 1.1//EN" "http://www.w3.org/Graphics/SVG/1.1/DTD/svg11.dtd">
<svg xmlns="http://www.w3.org/2000/svg" version="1.1" width="512px" height="512px" style="shape-rendering:geometricPrecision; text-rendering:geometricPrecision; image-rendering:optimizeQuality; fill-rule:evenodd; clip-rule:evenodd" xmlns:xlink="http://www.w3.org/1999/xlink">
<g><path style="opacity:0.993" fill="#000000" d="M 114.5,-0.5 C 169.5,-0.5 224.5,-0.5 279.5,-0.5C 347.929,11.4272 389.429,51.4272 404,119.5C 409.731,160.415 400.231,197.248 375.5,230C 429.259,280.534 444.425,341.034 421,411.5C 395.555,468.45 352.055,501.784 290.5,511.5C 231.833,511.5 173.167,511.5 114.5,511.5C 96.5157,506.348 85.0157,494.682 80,476.5C 79.3333,329.167 79.3333,181.833 80,34.5C 85.0157,16.3183 96.5157,4.65165 114.5,-0.5 Z M 169.5,89.5 C 200.835,89.3334 232.168,89.5 263.5,90C 294.775,93.1076 311.775,110.274 314.5,141.5C 312.366,170.467 297.033,187.634 268.5,193C 235.502,193.5 202.502,193.667 169.5,193.5C 169.5,158.833 169.5,124.167 169.5,89.5 Z M 169.5,284.5 C 206.835,284.333 244.168,284.5 281.5,285C 318.469,292.468 338.136,314.968 340.5,352.5C 338.868,386.925 321.535,409.091 288.5,419C 283.547,419.995 278.547,420.662 273.5,421C 238.835,421.5 204.168,421.667 169.5,421.5C 169.5,375.833 169.5,330.167 169.5,284.5 Z"/></g>
</svg>
