<?xml version="1.0" encoding="UTF-8"?>
<!DOCTYPE svg PUBLIC "-//W3C//DTD SVG 1.1//EN" "http://www.w3.org/Graphics/SVG/1.1/DTD/svg11.dtd">
<svg xmlns="http://www.w3.org/2000/svg" version="1.1" width="512px" height="512px" style="shape-rendering:geometricPrecision; text-rendering:geometricPrecision; image-rendering:optimizeQuality; fill-rule:evenodd; clip-rule:evenodd" xmlns:xlink="http://www.w3.org/1999/xlink">
<g><path style="opacity:0.97" fill="#000000" d="M 279.5,51.5 C 295.969,51.135 303.802,59.135 303,75.5C 284.186,199.197 265.186,322.864 246,446.5C 239.04,459.455 228.873,462.621 215.5,456C 209.109,450.611 206.609,443.778 208,435.5C 226.667,313.5 245.333,191.5 264,69.5C 265.248,59.9395 270.415,53.9395 279.5,51.5 Z"/></g>
<g><path style="opacity:0.966" fill="#000000" d="M -0.5,261.5 C -0.5,257.5 -0.5,253.5 -0.5,249.5C 1.32474,245.485 3.82474,241.818 7,238.5C 46.5,197 86,155.5 125.5,114C 136.521,108.084 146.021,109.917 154,119.5C 157.782,127.899 157.115,135.899 152,143.5C 116.65,180.682 81.4836,218.016 46.5,255.5C 81.4836,292.984 116.65,330.318 152,367.5C 159.707,380.159 157.54,390.659 145.5,399C 138.532,401.37 131.865,400.703 125.5,397C 86,355.5 46.5,314 7,272.5C 3.82474,269.182 1.32474,265.515 -0.5,261.5 Z"/></g>
<g><path style="opacity:0.966" fill="#000000" d="M 511.5,249.5 C 511.5,253.5 511.5,257.5 511.5,261.5C 509.675,265.515 507.175,269.182 504,272.5C 464.5,314 425,355.5 385.5,397C 374.38,403.045 364.88,401.211 357,391.5C 353.218,383.101 353.885,375.101 359,367.5C 394.35,330.318 429.516,292.984 464.5,255.5C 429.516,218.016 394.35,180.682 359,143.5C 351.293,130.841 353.46,120.341 365.5,112C 372.484,109.591 379.151,110.258 385.5,114C 425,155.5 464.5,197 504,238.5C 507.175,241.818 509.675,245.485 511.5,249.5 Z"/></g>
</svg>
