<?xml version="1.0" encoding="UTF-8"?>
<!DOCTYPE svg PUBLIC "-//W3C//DTD SVG 1.1//EN" "http://www.w3.org/Graphics/SVG/1.1/DTD/svg11.dtd">
<svg xmlns="http://www.w3.org/2000/svg" version="1.1" width="512px" height="512px" style="shape-rendering:geometricPrecision; text-rendering:geometricPrecision; image-rendering:optimizeQuality; fill-rule:evenodd; clip-rule:evenodd" xmlns:xlink="http://www.w3.org/1999/xlink">
<g><path style="opacity:0.979" fill="#000000" d="M 22.5,-0.5 C 27.5,-0.5 32.5,-0.5 37.5,-0.5C 41.5661,1.36941 45.5661,3.53607 49.5,6C 118.014,74.6803 186.68,143.18 255.5,211.5C 324.32,143.18 392.986,74.6803 461.5,6C 465.434,3.53607 469.434,1.36941 473.5,-0.5C 478.5,-0.5 483.5,-0.5 488.5,-0.5C 500.5,2.83333 508.167,10.5 511.5,22.5C 511.5,27.5 511.5,32.5 511.5,37.5C 509.631,41.5661 507.464,45.5661 505,49.5C 436.32,118.014 367.82,186.68 299.5,255.5C 367.82,324.32 436.32,392.986 505,461.5C 507.464,465.434 509.631,469.434 511.5,473.5C 511.5,478.5 511.5,483.5 511.5,488.5C 508.167,500.5 500.5,508.167 488.5,511.5C 483.5,511.5 478.5,511.5 473.5,511.5C 469.434,509.631 465.434,507.464 461.5,505C 392.986,436.32 324.32,367.82 255.5,299.5C 186.68,367.82 118.014,436.32 49.5,505C 45.5661,507.464 41.5661,509.631 37.5,511.5C 32.5,511.5 27.5,511.5 22.5,511.5C 10.5,508.167 2.83333,500.5 -0.5,488.5C -0.5,483.5 -0.5,478.5 -0.5,473.5C 1.36941,469.434 3.53607,465.434 6,461.5C 74.6803,392.986 143.18,324.32 211.5,255.5C 143.18,186.68 74.6803,118.014 6,49.5C 3.53607,45.5661 1.36941,41.5661 -0.5,37.5C -0.5,32.5 -0.5,27.5 -0.5,22.5C 2.83333,10.5 10.5,2.83333 22.5,-0.5 Z"/></g>
</svg>
