<?xml version="1.0" encoding="UTF-8"?>
<!DOCTYPE svg PUBLIC "-//W3C//DTD SVG 1.1//EN" "http://www.w3.org/Graphics/SVG/1.1/DTD/svg11.dtd">
<svg xmlns="http://www.w3.org/2000/svg" version="1.1" width="512px" height="512px" style="shape-rendering:geometricPrecision; text-rendering:geometricPrecision; image-rendering:optimizeQuality; fill-rule:evenodd; clip-rule:evenodd" xmlns:xlink="http://www.w3.org/1999/xlink">
<g><path style="opacity:0.979" fill="#000000" d="M 273.5,-0.5 C 304.167,-0.5 334.833,-0.5 365.5,-0.5C 380.225,5.61021 386.058,16.6102 383,32.5C 380.56,41.2078 375.06,47.0412 366.5,50C 357.305,51.0295 348.138,51.8628 339,52.5C 301.186,188.105 263.686,323.771 226.5,459.5C 240.699,459.003 250.199,465.336 255,478.5C 258.058,494.39 252.225,505.39 237.5,511.5C 206.833,511.5 176.167,511.5 145.5,511.5C 126.309,501.745 122.142,487.411 133,468.5C 136.293,465.213 140.127,462.713 144.5,461C 153.695,459.97 162.862,459.137 172,458.5C 209.814,322.895 247.314,187.229 284.5,51.5C 270.301,51.9974 260.801,45.664 256,32.5C 252.942,16.6102 258.775,5.61021 273.5,-0.5 Z"/></g>
</svg>
