<?xml version="1.0" encoding="UTF-8"?>
<!DOCTYPE svg PUBLIC "-//W3C//DTD SVG 1.1//EN" "http://www.w3.org/Graphics/SVG/1.1/DTD/svg11.dtd">
<svg xmlns="http://www.w3.org/2000/svg" version="1.1" width="512px" height="512px" style="shape-rendering:geometricPrecision; text-rendering:geometricPrecision; image-rendering:optimizeQuality; fill-rule:evenodd; clip-rule:evenodd" xmlns:xlink="http://www.w3.org/1999/xlink">
<g><path style="opacity:0.976" fill="#000000" d="M 142.5,85.5 C 163.137,85.2976 171.637,95.2976 168,115.5C 167.086,117.664 165.919,119.664 164.5,121.5C 141.014,144.486 117.68,167.653 94.5,191C 171.5,191.333 248.5,191.667 325.5,192C 386.432,201.93 425.932,236.43 444,295.5C 456.208,354.885 439.041,403.719 392.5,442C 370.426,457.915 345.76,466.915 318.5,469C 296.167,469.667 273.833,469.667 251.5,469C 238.611,465.43 232.777,456.93 234,443.5C 235.553,435.548 240.053,430.048 247.5,427C 271.45,425.706 295.45,425.04 319.5,425C 355.613,419.537 381.446,400.371 397,367.5C 412.278,324.78 403.444,287.947 370.5,257C 354.801,244.155 336.801,236.821 316.5,235C 242.5,234.333 168.5,234.333 94.5,235C 118.972,258.472 143.139,282.305 167,306.5C 172.733,317.806 171.233,327.973 162.5,337C 153.462,342.99 144.462,342.99 135.5,337C 97.6943,300.195 60.1943,263.028 23,225.5C 18.3807,216.861 18.3807,208.194 23,199.5C 59.8056,163.695 96.3056,127.528 132.5,91C 135.767,88.8703 139.1,87.037 142.5,85.5 Z"/></g>
</svg>
